<svg width="23" height="13" viewBox="0 0 23 13" fill="none" xmlns="http://www.w3.org/2000/svg">
<path d="M21.8734 2.31093L12.1859 11.9984C12.096 12.0885 11.9891 12.16 11.8715 12.2087C11.7539 12.2575 11.6278 12.2825 11.5005 12.2825C11.3732 12.2825 11.2472 12.2575 11.1296 12.2087C11.012 12.16 10.9051 12.0885 10.8151 11.9984L1.12765 2.31093C0.945871 2.12915 0.84375 1.88261 0.84375 1.62554C0.84375 1.36847 0.945871 1.12192 1.12765 0.940148C1.30942 0.758371 1.55597 0.65625 1.81304 0.65625C2.07011 0.65625 2.31665 0.758371 2.49843 0.940148L11.5005 9.94347L20.5026 0.940148C20.5927 0.850141 20.6995 0.778744 20.8171 0.730032C20.9347 0.681321 21.0608 0.65625 21.188 0.65625C21.3153 0.65625 21.4414 0.681321 21.559 0.730032C21.6766 0.778744 21.7834 0.850141 21.8734 0.940148C21.9634 1.03015 22.0348 1.13701 22.0835 1.25461C22.1323 1.37221 22.1573 1.49825 22.1573 1.62554C22.1573 1.75283 22.1323 1.87887 22.0835 1.99647C22.0348 2.11407 21.9634 2.22092 21.8734 2.31093Z" fill="black"/>
</svg>
