<svg width="138" height="166" viewBox="0 0 138 166" fill="none" xmlns="http://www.w3.org/2000/svg">
<path d="M131.82 71.9805L19.1324 2.06912C17.2326 0.889277 15.0566 0.24518 12.8292 0.203348C10.6018 0.161516 8.40377 0.723466 6.46213 1.83116C4.53898 2.92165 2.93694 4.51196 1.82076 6.43855C0.704576 8.36514 0.114542 10.5585 0.111328 12.793V152.6C0.125819 155.952 1.45214 159.161 3.79873 161.521C6.14532 163.882 9.32012 165.2 12.6252 165.188C14.9321 165.187 17.1942 164.542 19.1637 163.324L131.82 93.4124C133.631 92.293 135.127 90.7202 136.166 88.8449C137.204 86.9697 137.75 84.8551 137.75 82.7044C137.75 80.5537 137.204 78.4391 136.166 76.5638C135.127 74.6886 133.631 73.1157 131.82 71.9964V71.9805Z" fill="white"/>
</svg>
