<svg width="42" height="43" viewBox="0 0 42 43" fill="none" xmlns="http://www.w3.org/2000/svg">
<path d="M41.5223 39.6933L31.4887 29.6617C34.3968 26.1703 35.847 21.6922 35.5375 17.1588C35.2279 12.6255 33.1826 8.38597 29.8269 5.32223C26.4713 2.25849 22.0636 0.6064 17.5209 0.709641C12.9781 0.812882 8.6501 2.6635 5.43708 5.87653C2.22405 9.08955 0.373429 13.4176 0.270188 17.9603C0.166947 22.5031 1.81903 26.9107 4.88277 30.2664C7.94652 33.6221 12.186 35.6674 16.7194 35.9769C21.2527 36.2864 25.7309 34.8363 29.2223 31.9281L39.2538 41.9617C39.4028 42.1107 39.5796 42.2288 39.7742 42.3094C39.9688 42.39 40.1774 42.4315 40.388 42.4315C40.5987 42.4315 40.8073 42.39 41.0019 42.3094C41.1965 42.2288 41.3733 42.1107 41.5223 41.9617C41.6712 41.8128 41.7894 41.6359 41.87 41.4413C41.9506 41.2467 41.9921 41.0381 41.9921 40.8275C41.9921 40.6169 41.9506 40.4083 41.87 40.2137C41.7894 40.0191 41.6712 39.8422 41.5223 39.6933ZM3.51617 18.3837C3.51617 15.5301 4.36236 12.7406 5.94775 10.3679C7.53313 7.99522 9.78649 6.14593 12.4229 5.0539C15.0593 3.96187 17.9603 3.67614 20.7591 4.23285C23.5579 4.78957 26.1287 6.16371 28.1465 8.18152C30.1643 10.1993 31.5385 12.7702 32.0952 15.569C32.6519 18.3677 32.3662 21.2688 31.2741 23.9051C30.1821 26.5415 28.3328 28.7949 25.9601 30.3803C23.5874 31.9657 20.7979 32.8119 17.9443 32.8119C14.119 32.8076 10.4516 31.2862 7.74675 28.5813C5.04187 25.8764 3.52041 22.209 3.51617 18.3837Z" fill="black"/>
</svg>
